<svg xmlns="http://www.w3.org/2000/svg" viewBox="0 0 1440 900" preserveAspectRatio="xMidYMid slice">
<line x1="120" y1="0" x2="120" y2="900" stroke="#fff" stroke-opacity=".07" fill="none"/>
<text x="126" y="888" font-family="Arial" fill="#fff" fill-opacity=".13" font-size="11">17°09′E</text>
<line x1="360" y1="0" x2="360" y2="900" stroke="#fff" stroke-opacity=".07" fill="none"/>
<text x="366" y="888" font-family="Arial" fill="#fff" fill-opacity=".13" font-size="11">17°12′E</text>
<line x1="600" y1="0" x2="600" y2="900" stroke="#fff" stroke-opacity=".07" fill="none"/>
<text x="606" y="888" font-family="Arial" fill="#fff" fill-opacity=".13" font-size="11">17°15′E</text>
<line x1="840" y1="0" x2="840" y2="900" stroke="#fff" stroke-opacity=".07" fill="none"/>
<text x="846" y="888" font-family="Arial" fill="#fff" fill-opacity=".13" font-size="11">17°18′E</text>
<line x1="1080" y1="0" x2="1080" y2="900" stroke="#fff" stroke-opacity=".07" fill="none"/>
<text x="1086" y="888" font-family="Arial" fill="#fff" fill-opacity=".13" font-size="11">17°21′E</text>
<line x1="1320" y1="0" x2="1320" y2="900" stroke="#fff" stroke-opacity=".07" fill="none"/>
<text x="1326" y="888" font-family="Arial" fill="#fff" fill-opacity=".13" font-size="11">17°24′E</text>
<line x1="0" y1="90" x2="1440" y2="90" stroke="#fff" stroke-opacity=".07" fill="none"/>
<text x="12" y="84" font-family="Arial" fill="#fff" fill-opacity=".13" font-size="11">41°03′N</text>
<line x1="0" y1="330" x2="1440" y2="330" stroke="#fff" stroke-opacity=".07" fill="none"/>
<text x="12" y="324" font-family="Arial" fill="#fff" fill-opacity=".13" font-size="11">40°57′N</text>
<line x1="0" y1="570" x2="1440" y2="570" stroke="#fff" stroke-opacity=".07" fill="none"/>
<text x="12" y="564" font-family="Arial" fill="#fff" fill-opacity=".13" font-size="11">40°51′N</text>
<line x1="0" y1="810" x2="1440" y2="810" stroke="#fff" stroke-opacity=".07" fill="none"/>
<text x="12" y="804" font-family="Arial" fill="#fff" fill-opacity=".13" font-size="11">40°45′N</text>
<circle cx="1090" cy="430" r="250" stroke="#fff" stroke-opacity=".07" fill="none" stroke-width="1.2"/>
<circle cx="1090" cy="430" r="45" stroke="#fff" stroke-opacity=".07" fill="none"/>
<line x1="1090.0" y1="180.0" x2="1090.0" y2="202.0" stroke="#fff" stroke-opacity=".07" fill="none"/>
<text x="1090.0" y="224.0" text-anchor="middle" font-family="Arial" fill="#fff" fill-opacity=".13" font-size="12">0</text>
<line x1="1111.8" y1="181.0" x2="1111.3" y2="186.9" stroke="#fff" stroke-opacity=".07" fill="none"/>
<line x1="1133.4" y1="183.8" x2="1131.3" y2="195.6" stroke="#fff" stroke-opacity=".07" fill="none"/>
<line x1="1154.7" y1="188.5" x2="1153.2" y2="194.3" stroke="#fff" stroke-opacity=".07" fill="none"/>
<line x1="1175.5" y1="195.1" x2="1171.4" y2="206.4" stroke="#fff" stroke-opacity=".07" fill="none"/>
<line x1="1195.7" y1="203.4" x2="1193.1" y2="208.9" stroke="#fff" stroke-opacity=".07" fill="none"/>
<line x1="1215.0" y1="213.5" x2="1204.0" y2="232.5" stroke="#fff" stroke-opacity=".07" fill="none"/>
<text x="1195.0" y="252.1" text-anchor="middle" font-family="Arial" fill="#fff" fill-opacity=".13" font-size="12">3</text>
<line x1="1233.4" y1="225.2" x2="1230.0" y2="230.1" stroke="#fff" stroke-opacity=".07" fill="none"/>
<line x1="1250.7" y1="238.5" x2="1243.0" y2="247.7" stroke="#fff" stroke-opacity=".07" fill="none"/>
<line x1="1266.8" y1="253.2" x2="1262.5" y2="257.5" stroke="#fff" stroke-opacity=".07" fill="none"/>
<line x1="1281.5" y1="269.3" x2="1272.3" y2="277.0" stroke="#fff" stroke-opacity=".07" fill="none"/>
<line x1="1294.8" y1="286.6" x2="1289.9" y2="290.0" stroke="#fff" stroke-opacity=".07" fill="none"/>
<line x1="1306.5" y1="305.0" x2="1287.5" y2="316.0" stroke="#fff" stroke-opacity=".07" fill="none"/>
<text x="1271.9" y="329.0" text-anchor="middle" font-family="Arial" fill="#fff" fill-opacity=".13" font-size="12">6</text>
<line x1="1316.6" y1="324.3" x2="1311.1" y2="326.9" stroke="#fff" stroke-opacity=".07" fill="none"/>
<line x1="1324.9" y1="344.5" x2="1313.6" y2="348.6" stroke="#fff" stroke-opacity=".07" fill="none"/>
<line x1="1331.5" y1="365.3" x2="1325.7" y2="366.8" stroke="#fff" stroke-opacity=".07" fill="none"/>
<line x1="1336.2" y1="386.6" x2="1324.4" y2="388.7" stroke="#fff" stroke-opacity=".07" fill="none"/>
<line x1="1339.0" y1="408.2" x2="1333.1" y2="408.7" stroke="#fff" stroke-opacity=".07" fill="none"/>
<line x1="1340.0" y1="430.0" x2="1318.0" y2="430.0" stroke="#fff" stroke-opacity=".07" fill="none"/>
<text x="1300.0" y="434.0" text-anchor="middle" font-family="Arial" fill="#fff" fill-opacity=".13" font-size="12">9</text>
<line x1="1339.0" y1="451.8" x2="1333.1" y2="451.3" stroke="#fff" stroke-opacity=".07" fill="none"/>
<line x1="1336.2" y1="473.4" x2="1324.4" y2="471.3" stroke="#fff" stroke-opacity=".07" fill="none"/>
<line x1="1331.5" y1="494.7" x2="1325.7" y2="493.2" stroke="#fff" stroke-opacity=".07" fill="none"/>
<line x1="1324.9" y1="515.5" x2="1313.6" y2="511.4" stroke="#fff" stroke-opacity=".07" fill="none"/>
<line x1="1316.6" y1="535.7" x2="1311.1" y2="533.1" stroke="#fff" stroke-opacity=".07" fill="none"/>
<line x1="1306.5" y1="555.0" x2="1287.5" y2="544.0" stroke="#fff" stroke-opacity=".07" fill="none"/>
<text x="1271.9" y="539.0" text-anchor="middle" font-family="Arial" fill="#fff" fill-opacity=".13" font-size="12">12</text>
<line x1="1294.8" y1="573.4" x2="1289.9" y2="570.0" stroke="#fff" stroke-opacity=".07" fill="none"/>
<line x1="1281.5" y1="590.7" x2="1272.3" y2="583.0" stroke="#fff" stroke-opacity=".07" fill="none"/>
<line x1="1266.8" y1="606.8" x2="1262.5" y2="602.5" stroke="#fff" stroke-opacity=".07" fill="none"/>
<line x1="1250.7" y1="621.5" x2="1243.0" y2="612.3" stroke="#fff" stroke-opacity=".07" fill="none"/>
<line x1="1233.4" y1="634.8" x2="1230.0" y2="629.9" stroke="#fff" stroke-opacity=".07" fill="none"/>
<line x1="1215.0" y1="646.5" x2="1204.0" y2="627.5" stroke="#fff" stroke-opacity=".07" fill="none"/>
<text x="1195.0" y="615.9" text-anchor="middle" font-family="Arial" fill="#fff" fill-opacity=".13" font-size="12">15</text>
<line x1="1195.7" y1="656.6" x2="1193.1" y2="651.1" stroke="#fff" stroke-opacity=".07" fill="none"/>
<line x1="1175.5" y1="664.9" x2="1171.4" y2="653.6" stroke="#fff" stroke-opacity=".07" fill="none"/>
<line x1="1154.7" y1="671.5" x2="1153.2" y2="665.7" stroke="#fff" stroke-opacity=".07" fill="none"/>
<line x1="1133.4" y1="676.2" x2="1131.3" y2="664.4" stroke="#fff" stroke-opacity=".07" fill="none"/>
<line x1="1111.8" y1="679.0" x2="1111.3" y2="673.1" stroke="#fff" stroke-opacity=".07" fill="none"/>
<line x1="1090.0" y1="680.0" x2="1090.0" y2="658.0" stroke="#fff" stroke-opacity=".07" fill="none"/>
<text x="1090.0" y="644.0" text-anchor="middle" font-family="Arial" fill="#fff" fill-opacity=".13" font-size="12">18</text>
<line x1="1068.2" y1="679.0" x2="1068.7" y2="673.1" stroke="#fff" stroke-opacity=".07" fill="none"/>
<line x1="1046.6" y1="676.2" x2="1048.7" y2="664.4" stroke="#fff" stroke-opacity=".07" fill="none"/>
<line x1="1025.3" y1="671.5" x2="1026.8" y2="665.7" stroke="#fff" stroke-opacity=".07" fill="none"/>
<line x1="1004.5" y1="664.9" x2="1008.6" y2="653.6" stroke="#fff" stroke-opacity=".07" fill="none"/>
<line x1="984.3" y1="656.6" x2="986.9" y2="651.1" stroke="#fff" stroke-opacity=".07" fill="none"/>
<line x1="965.0" y1="646.5" x2="976.0" y2="627.5" stroke="#fff" stroke-opacity=".07" fill="none"/>
<text x="985.0" y="615.9" text-anchor="middle" font-family="Arial" fill="#fff" fill-opacity=".13" font-size="12">21</text>
<line x1="946.6" y1="634.8" x2="950.0" y2="629.9" stroke="#fff" stroke-opacity=".07" fill="none"/>
<line x1="929.3" y1="621.5" x2="937.0" y2="612.3" stroke="#fff" stroke-opacity=".07" fill="none"/>
<line x1="913.2" y1="606.8" x2="917.5" y2="602.5" stroke="#fff" stroke-opacity=".07" fill="none"/>
<line x1="898.5" y1="590.7" x2="907.7" y2="583.0" stroke="#fff" stroke-opacity=".07" fill="none"/>
<line x1="885.2" y1="573.4" x2="890.1" y2="570.0" stroke="#fff" stroke-opacity=".07" fill="none"/>
<line x1="873.5" y1="555.0" x2="892.5" y2="544.0" stroke="#fff" stroke-opacity=".07" fill="none"/>
<text x="908.1" y="539.0" text-anchor="middle" font-family="Arial" fill="#fff" fill-opacity=".13" font-size="12">24</text>
<line x1="863.4" y1="535.7" x2="868.9" y2="533.1" stroke="#fff" stroke-opacity=".07" fill="none"/>
<line x1="855.1" y1="515.5" x2="866.4" y2="511.4" stroke="#fff" stroke-opacity=".07" fill="none"/>
<line x1="848.5" y1="494.7" x2="854.3" y2="493.2" stroke="#fff" stroke-opacity=".07" fill="none"/>
<line x1="843.8" y1="473.4" x2="855.6" y2="471.3" stroke="#fff" stroke-opacity=".07" fill="none"/>
<line x1="841.0" y1="451.8" x2="846.9" y2="451.3" stroke="#fff" stroke-opacity=".07" fill="none"/>
<line x1="840.0" y1="430.0" x2="862.0" y2="430.0" stroke="#fff" stroke-opacity=".07" fill="none"/>
<text x="880.0" y="434.0" text-anchor="middle" font-family="Arial" fill="#fff" fill-opacity=".13" font-size="12">27</text>
<line x1="841.0" y1="408.2" x2="846.9" y2="408.7" stroke="#fff" stroke-opacity=".07" fill="none"/>
<line x1="843.8" y1="386.6" x2="855.6" y2="388.7" stroke="#fff" stroke-opacity=".07" fill="none"/>
<line x1="848.5" y1="365.3" x2="854.3" y2="366.8" stroke="#fff" stroke-opacity=".07" fill="none"/>
<line x1="855.1" y1="344.5" x2="866.4" y2="348.6" stroke="#fff" stroke-opacity=".07" fill="none"/>
<line x1="863.4" y1="324.3" x2="868.9" y2="326.9" stroke="#fff" stroke-opacity=".07" fill="none"/>
<line x1="873.5" y1="305.0" x2="892.5" y2="316.0" stroke="#fff" stroke-opacity=".07" fill="none"/>
<text x="908.1" y="329.0" text-anchor="middle" font-family="Arial" fill="#fff" fill-opacity=".13" font-size="12">30</text>
<line x1="885.2" y1="286.6" x2="890.1" y2="290.0" stroke="#fff" stroke-opacity=".07" fill="none"/>
<line x1="898.5" y1="269.3" x2="907.7" y2="277.0" stroke="#fff" stroke-opacity=".07" fill="none"/>
<line x1="913.2" y1="253.2" x2="917.5" y2="257.5" stroke="#fff" stroke-opacity=".07" fill="none"/>
<line x1="929.3" y1="238.5" x2="937.0" y2="247.7" stroke="#fff" stroke-opacity=".07" fill="none"/>
<line x1="946.6" y1="225.2" x2="950.0" y2="230.1" stroke="#fff" stroke-opacity=".07" fill="none"/>
<line x1="965.0" y1="213.5" x2="976.0" y2="232.5" stroke="#fff" stroke-opacity=".07" fill="none"/>
<text x="985.0" y="252.1" text-anchor="middle" font-family="Arial" fill="#fff" fill-opacity=".13" font-size="12">33</text>
<line x1="984.3" y1="203.4" x2="986.9" y2="208.9" stroke="#fff" stroke-opacity=".07" fill="none"/>
<line x1="1004.5" y1="195.1" x2="1008.6" y2="206.4" stroke="#fff" stroke-opacity=".07" fill="none"/>
<line x1="1025.3" y1="188.5" x2="1026.8" y2="194.3" stroke="#fff" stroke-opacity=".07" fill="none"/>
<line x1="1046.6" y1="183.8" x2="1048.7" y2="195.6" stroke="#fff" stroke-opacity=".07" fill="none"/>
<line x1="1068.2" y1="181.0" x2="1068.7" y2="186.9" stroke="#fff" stroke-opacity=".07" fill="none"/>
<line x1="1090" y1="430" x2="615" y2="585" stroke="#fff" stroke-opacity=".07" fill="none" stroke-width="1.2" stroke-dasharray="10 8"/>
<text x="760" y="530" font-family="Arial" fill="#fff" fill-opacity=".13" font-size="11" transform="rotate(-18 760 530)">R-252 · 3500 FT</text>
<g transform="rotate(-24 260 640)"><rect x="140" y="631" width="240" height="18" stroke="#fff" stroke-opacity=".07" fill="none" stroke-width="1.2"/><text x="148" y="644" font-family="Arial" fill="#fff" fill-opacity=".13" font-size="10">07</text><text x="358" y="644" font-family="Arial" fill="#fff" fill-opacity=".13" font-size="10">25</text></g>
</svg>